<svg xmlns="http://www.w3.org/2000/svg" viewBox="0 0 128 128"><g fill="#fff"><path d="M96.8 48.5c1.4-1.4 2.2-3.3 2.2-5.3s-.8-3.9-2.2-5.3l-8.5-8.5c-6.1-6.1-16.1-6.1-22.2-0L58.9 36.4l-6.6-3.8c3.8-7.1 2.8-15.8-3.2-21.8l-1.8-1.8c-2.9-2.9-6.9-4.6-11-4.6-4.2 0-8.1 1.6-11 4.6L13.2 23.7c-6.1 6.1-6.1 16.1 0 22.2l10.4 10.4c1 1 2.2 1.6 3.5 1.8v1.2c0 6.1 5 11.1 11.1 11.1h3.7l3.8 6.6c-3.8 7.1-2.8 15.8 3.2 21.8l1.8 1.8c2.9 2.9 6.9 4.6 11 4.6 4.2 0 8.1-1.6 11-4.6l12.1-12.1c6.1-6.1 6.1-16.1 0-22.2L58.9 63.6l3.8-6.6z"/></g></svg>
